<svg xmlns="http://www.w3.org/2000/svg" width="20.994" height="19" viewBox="0 0 20.994 19">
  <g id="Group_1" data-name="Group 1" transform="translate(-383.5 -11)">
    <path id="Shape_sp-11709-2-0" data-name="Shape sp-11709-2-0" d="M19.722,3.715,9.878,13.38a.421.421,0,0,1-.295.12H6.667a.413.413,0,0,1-.417-.409V10.227a.405.405,0,0,1,.122-.289L16.216.273a.967.967,0,0,1,1.318,0l2.187,2.148a.9.9,0,0,1,0,1.294Z" transform="translate(384 11.486)" fill="#f55661" stroke="rgba(0,0,0,0)" stroke-miterlimit="10" stroke-width="1"/>
    <path id="Icon3" d="M17.083,18H1.25A1.24,1.24,0,0,1,0,16.772V1.227A1.24,1.24,0,0,1,1.25,0H12.5V.818H1.25a.413.413,0,0,0-.417.409V16.772a.414.414,0,0,0,.417.41H17.083a.414.414,0,0,0,.417-.41V9h.833v7.772A1.24,1.24,0,0,1,17.083,18Z" transform="translate(384 11.5)" fill="#495059" stroke="rgba(255,255,255,0)" stroke-width="1"/>
  </g>
</svg>
